<?xml version="1.0" encoding="UTF-8"?>
<svg id="Layer_2" data-name="Layer 2" xmlns="http://www.w3.org/2000/svg" xmlns:xlink="http://www.w3.org/1999/xlink" viewBox="0 0 425.2 425.2">
  <defs>
    <style>
      .cls-1 {
        fill: url(#linear-gradient);
      }

      .cls-1, .cls-2, .cls-3, .cls-4 {
        stroke-width: 0px;
      }

      .cls-2 {
        opacity: .05;
      }

      .cls-2, .cls-4 {
        fill: #000;
        isolation: isolate;
      }

      .cls-3 {
        fill: #fff;
      }

      .cls-4 {
        opacity: .07;
      }
    </style>
    <linearGradient id="linear-gradient" x1="2.69" y1="439.61" x2="426.11" y2="-15.54" gradientTransform="translate(0 426.57) scale(1 -1)" gradientUnits="userSpaceOnUse">
      <stop offset="0" stop-color="#0d61a9"/>
      <stop offset="1" stop-color="#16528c"/>
    </linearGradient>
  </defs>
  <g id="Layer_1-2" data-name="Layer 1">
    <g>
      <path class="cls-1" d="M425.2,401.57c0,13.05-10.57,23.62-23.62,23.62H23.62c-13.05,0-23.62-10.57-23.62-23.62V23.62C0,10.57,10.57,0,23.62,0h377.95c13.05,0,23.62,10.57,23.62,23.62v377.95Z"/>
      <path class="cls-2" d="M224.41,377.95v-129.92h-47.24v-70.87h47.24v-25.25c0-59.55,31.49-92.34,88.64-92.34,23.56,0,36.34,1.65,42.5,2.46l10.13,1.31.46,10.17v56.41h-42.93c-13.32,0-16.12,16.28-16.12,29.94v17.3h55.78l-10.96,70.87h-44.82v129.92h-82.68Z"/>
      <path class="cls-4" d="M230.31,372.05v-129.92h-47.24v-59.06h47.24v-31.16c0-56.55,28.61-86.43,82.74-86.43,23.28,0,35.79,1.63,41.81,2.41l5.15.67.24,5.22v50.23h-37.03c-19.17,0-22.03,22.45-22.03,35.85v23.21h54.8l-9.13,59.06h-45.69v129.92h-70.87Z"/>
      <path class="cls-3" d="M323.21,118.11h31.12v-44.34c-5.81-.76-18.08-2.4-41.28-2.4-48.44,0-76.83,24.57-76.83,80.54v37.06h-47.24v47.24h47.24v129.92h59.06v-129.92h46.51l7.3-47.24h-53.81v-29.11c0-22.13,7.23-41.75,27.93-41.75Z"/>
    </g>
  </g>
</svg>