<?xml version="1.0" encoding="UTF-8"?>
<svg id="Layer_2" data-name="Layer 2" xmlns="http://www.w3.org/2000/svg" viewBox="0 0 425.2 433.87">
  <defs>
    <style>
      .cls-1 {
        fill: #fbbc05;
      }

      .cls-1, .cls-2, .cls-3, .cls-4 {
        stroke-width: 0px;
      }

      .cls-2 {
        fill: #34a853;
      }

      .cls-3 {
        fill: #eb4335;
      }

      .cls-4 {
        fill: #4285f4;
      }
    </style>
  </defs>
  <g id="Layer_1-2" data-name="Layer 1">
    <g>
      <path class="cls-4" d="M425.2,221.76c0-17.84-1.45-30.85-4.58-44.35h-203.68v80.51h119.56c-2.41,20.01-15.43,50.14-44.35,70.38l-.41,2.7,64.4,49.89,4.46.45c40.98-37.84,64.6-93.52,64.6-159.57"/>
      <path class="cls-2" d="M216.94,433.87c58.57,0,107.74-19.28,143.66-52.55l-68.46-53.03c-18.32,12.78-42.91,21.69-75.2,21.69-57.37,0-106.06-37.84-123.41-90.15l-2.54.22-66.96,51.82-.88,2.43c35.67,70.87,108.95,119.56,193.8,119.56"/>
      <path class="cls-1" d="M93.52,259.84c-4.58-13.5-7.23-27.96-7.23-42.91s2.65-29.41,6.99-42.91l-.12-2.87L25.36,118.5l-2.22,1.06C8.44,148.96,0,181.99,0,216.94s8.44,67.97,23.14,97.38l70.38-54.47"/>
      <path class="cls-3" d="M216.94,83.88c40.74,0,68.21,17.6,83.88,32.3l61.22-59.78C324.44,21.45,275.51,0,216.94,0,132.09,0,58.81,48.69,23.14,119.56l70.14,54.48c17.6-52.31,66.29-90.15,123.66-90.15"/>
    </g>
  </g>
</svg>